<?xml version="1.0" encoding="UTF-8" standalone="no"?>
<!DOCTYPE svg PUBLIC "-//W3C//DTD SVG 1.1//EN" "http://www.w3.org/Graphics/SVG/1.1/DTD/svg11.dtd">
<svg width="100%" height="100%" viewBox="0 0 487 74" version="1.1" xmlns="http://www.w3.org/2000/svg" xmlns:xlink="http://www.w3.org/1999/xlink" xml:space="preserve" style="fill-rule:evenodd;clip-rule:evenodd;stroke-linejoin:round;stroke-miterlimit:1.41421;">
    <g transform="matrix(1,0,0,1,-0.499734,-222.084)">
        <path d="M70.192,279.784C66.416,276.139 55.57,272.962 44.435,272.308C43.638,272.906 43.076,273.54 42.758,274.204C52.151,274.635 61.171,277.313 64.507,280.301C67.528,282.689 67.075,285.975 63.573,288.243C58.457,291.811 47.9,293.456 36.438,293.418C24.976,293.456 14.419,291.811 9.303,288.243C5.801,285.975 5.348,282.689 8.369,280.301C11.705,277.313 20.726,274.635 30.118,274.204C29.8,273.54 29.238,272.906 28.441,272.308C17.306,272.962 6.46,276.139 2.685,279.784C-2.435,284.409 1.642,289.682 12.819,292.956C19.057,294.845 27.788,295.861 36.438,295.885C45.087,295.861 53.821,294.845 60.057,292.956C71.234,289.682 75.312,284.409 70.192,279.784Z" style="fill:rgb(115,175,197);fill-rule:nonzero;"/>
    </g>
    <g transform="matrix(1,0,0,1,-0.499734,-222.084)">
        <path d="M64.243,247.003C64.035,243.921 61.55,241.534 58.575,240.44C59.803,238.731 59.972,236.838 59.101,234.748C57.713,231.422 53.845,230.372 51.562,230.528C48.307,230.752 46.372,232.114 42.948,234.736C42.154,234.13 40.54,232.925 39.834,232.379C39.834,232.379 42.164,230.457 44.626,229.151C46.977,227.905 48.662,227.899 48.662,227.899C48.662,227.899 44.422,222.122 36.452,222.086L36.452,222.084L36.424,222.084L36.424,222.086C28.453,222.122 24.214,227.899 24.214,227.899C24.214,227.899 25.899,227.905 28.25,229.151C30.712,230.457 33.042,232.379 33.042,232.379C32.336,232.925 30.722,234.13 29.929,234.736C26.504,232.114 24.569,230.752 21.314,230.528C19.031,230.372 15.163,231.422 13.775,234.748C12.904,236.838 13.073,238.731 14.299,240.44C11.324,241.534 8.841,243.921 8.633,247.003C8.426,250.073 10.228,252.915 13.42,254.3C12.534,255.459 12.094,256.758 12.094,257.874C12.093,260.844 14.759,264.92 20.473,264.764C24.737,264.647 26.432,263.319 29.789,260.725C31.426,263.478 32.295,266.915 32.53,270.11C33.156,278.659 30.267,284.439 30.267,284.439C30.267,284.439 30.402,284.444 30.636,284.452C30.754,284.477 32.956,284.936 36.193,284.966C36.275,284.966 36.356,284.964 36.438,284.964C36.52,284.964 36.601,284.966 36.683,284.966C39.92,284.936 42.122,284.477 42.24,284.452C42.474,284.444 42.609,284.439 42.609,284.439C42.609,284.439 39.72,278.659 40.346,270.11C40.581,266.915 41.45,263.478 43.087,260.725C46.444,263.319 48.141,264.647 52.403,264.764C58.118,264.92 60.782,260.844 60.782,257.874C60.782,256.758 60.342,255.459 59.456,254.3C62.647,252.915 64.45,250.073 64.243,247.003ZM51.411,234.799C54.375,234.649 55.559,236.446 55.312,237.649C55.012,239.133 53.153,240.248 51.433,240.059C49.724,239.873 48.456,239.02 46.385,237.362C47.777,236.269 49.483,234.897 51.411,234.799ZM43.003,239.938C43.969,240.648 44.884,241.356 45.615,241.905C46,242.194 46.324,242.473 46.731,242.737C46.234,243.092 45.843,243.414 45.269,243.852C44.851,244.17 44.187,244.666 43.564,245.133C42.538,244.354 41.304,243.436 39.856,242.324C40.83,241.598 41.867,240.778 43.003,239.938ZM32.204,226.944C32.204,226.944 33.284,225.779 36.438,225.754C39.592,225.779 40.672,226.944 40.672,226.944C40.672,226.944 39.861,227.381 38.696,228.196C37.199,229.245 36.448,229.852 36.438,229.86C36.428,229.852 35.677,229.245 34.18,228.196C33.015,227.381 32.204,226.944 32.204,226.944ZM36.438,239.702L36.408,239.68C35.172,238.752 34.296,238.032 33.32,237.305C34.107,236.705 35.037,235.988 36.332,235.008L36.438,234.932L36.544,235.008C37.84,235.988 38.769,236.705 39.556,237.305C38.58,238.032 37.704,238.752 36.469,239.68L36.438,239.702ZM36.281,245.014L36.438,244.891L36.595,245.014C37.722,245.898 38.901,246.733 40.163,247.712C39.413,248.27 38.808,248.728 38.269,249.129C37.737,249.524 37.146,249.97 36.531,250.436L36.438,250.508L36.345,250.436C35.73,249.97 35.139,249.524 34.607,249.129C34.068,248.728 33.463,248.27 32.713,247.712C33.975,246.733 35.154,245.898 36.281,245.014ZM29.873,239.938C31.011,240.778 32.046,241.598 33.02,242.324C31.573,243.436 30.338,244.354 29.312,245.133C28.688,244.666 28.025,244.17 27.607,243.852C27.035,243.414 26.642,243.092 26.145,242.737C26.551,242.473 26.876,242.194 27.261,241.905C27.992,241.356 28.908,240.648 29.873,239.938ZM21.465,234.799C23.393,234.897 25.096,236.269 26.491,237.362C24.42,239.02 23.154,239.873 21.443,240.059C19.723,240.248 17.864,239.133 17.564,237.649C17.318,236.446 18.501,234.649 21.465,234.799ZM12.801,247.837C12.727,246.239 13.877,244.034 18.056,243.792C20.874,243.63 22.881,245.329 25.979,247.635C23.472,249.523 21.537,251.123 17.971,251.381C15.095,251.59 12.878,249.45 12.801,247.837ZM20.812,260.78C17.805,260.928 16.032,259.444 16.138,257.8C16.22,256.508 19.057,253.508 24.976,256.174C25.809,256.55 26.458,256.963 27.141,257.548C24.213,259.739 23.096,260.667 20.812,260.78ZM30.359,255.094C29.266,254.046 28.058,253.135 26.481,252.405C27.408,251.778 28.332,251.069 29.298,250.28C29.34,250.243 29.352,250.243 29.395,250.207C30.715,251.21 31.989,252.163 33.101,253.018C32.14,253.754 31.253,254.419 30.359,255.094ZM36.53,266.873L36.438,267.286L36.346,266.873C35.551,263.465 34.484,260.465 33.051,258.243C34.244,257.349 35.323,256.524 36.438,255.68C37.553,256.524 38.632,257.349 39.825,258.243C38.392,260.465 37.325,263.465 36.53,266.873ZM42.518,255.094C41.623,254.419 40.736,253.754 39.775,253.018C40.887,252.163 42.161,251.21 43.481,250.207C43.524,250.243 43.536,250.243 43.579,250.28C44.544,251.069 45.468,251.778 46.397,252.405C44.818,253.135 43.61,254.046 42.518,255.094ZM52.064,260.78C49.78,260.667 48.662,259.739 45.735,257.548C46.418,256.963 47.067,256.55 47.9,256.174C53.821,253.508 56.656,256.508 56.737,257.8C56.844,259.444 55.071,260.928 52.064,260.78ZM54.905,251.381C51.339,251.123 49.406,249.523 46.897,247.635C49.997,245.329 52.002,243.63 54.821,243.792C58.998,244.034 60.149,246.239 60.075,247.837C59.998,249.45 57.781,251.59 54.905,251.381Z" style="fill:rgb(115,175,197);fill-rule:nonzero;"/>
    </g>
    <g transform="matrix(1,0,0,1,-0.499734,-222.084)">
        <path d="M114.858,258.131C113.634,258.419 112.314,258.66 111.043,258.66C105.618,258.66 101.85,255.948 101.85,250.284C101.85,244.547 105.354,241.332 111.043,241.332C112.146,241.332 113.61,241.547 114.835,242.028L114.594,244.86C113.322,244.139 112.17,243.971 110.97,243.971C107.514,243.971 105.354,246.612 105.354,250.043C105.354,253.452 107.466,256.02 111.043,256.02C112.362,256.02 113.922,255.732 114.714,255.324L114.858,258.131Z" style="fill:black;fill-rule:nonzero;"/>
    </g>
    <g transform="matrix(1,0,0,1,-0.499734,-222.084)">
        <path d="M119.322,254.795C119.322,252.9 121.458,252.66 122.898,252.66L124.29,252.66C124.29,253.62 124.146,254.507 123.618,255.204C123.114,255.875 122.346,256.307 121.362,256.307C120.21,256.307 119.322,255.852 119.322,254.795ZM117.69,249.419C118.77,248.603 120.138,248.076 121.506,248.076C123.402,248.076 124.29,248.748 124.29,250.74L122.514,250.74C121.17,250.74 119.586,250.86 118.362,251.459C117.138,252.059 116.25,253.139 116.25,254.988C116.25,257.339 118.386,258.66 120.57,258.66C122.034,258.66 123.642,257.891 124.386,256.524L124.434,256.524C124.458,256.908 124.458,257.723 124.578,258.372L127.41,258.372C127.338,257.412 127.29,256.547 127.266,255.612C127.242,254.7 127.218,253.763 127.218,252.515L127.218,250.931C127.218,247.284 125.658,245.723 121.89,245.723C120.522,245.723 118.842,246.083 117.594,246.66L117.69,249.419Z" style="fill:black;fill-rule:nonzero;"/>
    </g>
    <g transform="matrix(1,0,0,1,-0.499734,-222.084)">
        <path d="M130.386,246.011L133.434,246.011L133.434,247.692L133.482,247.692C134.49,246.276 135.858,245.723 137.538,245.723C140.466,245.723 141.738,247.788 141.738,250.572L141.738,258.372L138.522,258.372L138.522,251.772C138.522,250.259 138.498,248.219 136.434,248.219C134.106,248.219 133.602,250.74 133.602,252.324L133.602,258.372L130.386,258.372L130.386,246.011Z" style="fill:black;fill-rule:nonzero;"/>
    </g>
    <g transform="matrix(1,0,0,1,-0.499734,-222.084)">
        <path d="M147.33,254.795C147.33,252.9 149.466,252.66 150.906,252.66L152.298,252.66C152.298,253.62 152.154,254.507 151.626,255.204C151.122,255.875 150.354,256.307 149.37,256.307C148.218,256.307 147.33,255.852 147.33,254.795ZM145.698,249.419C146.778,248.603 148.146,248.076 149.514,248.076C151.41,248.076 152.298,248.748 152.298,250.74L150.522,250.74C149.178,250.74 147.594,250.86 146.37,251.459C145.146,252.059 144.258,253.139 144.258,254.988C144.258,257.339 146.394,258.66 148.578,258.66C150.042,258.66 151.65,257.891 152.394,256.524L152.442,256.524C152.466,256.908 152.466,257.723 152.586,258.372L155.418,258.372C155.346,257.412 155.298,256.547 155.274,255.612C155.25,254.7 155.226,253.763 155.226,252.515L155.226,250.931C155.226,247.284 153.666,245.723 149.898,245.723C148.53,245.723 146.85,246.083 145.602,246.66L145.698,249.419Z" style="fill:black;fill-rule:nonzero;"/>
    </g>
    <g transform="matrix(1,0,0,1,-0.499734,-222.084)">
        <path d="M160.962,252.156C160.962,250.499 161.538,248.219 163.626,248.219C165.69,248.219 166.506,250.427 166.506,252.156C166.506,253.908 165.81,256.164 163.674,256.164C161.562,256.164 160.962,253.86 160.962,252.156ZM166.626,258.372L169.746,258.372L169.746,240.372L166.53,240.372L166.53,247.452L166.482,247.452C165.522,246.276 164.394,245.723 162.786,245.723C158.994,245.723 157.602,248.748 157.602,252.156C157.602,255.54 158.994,258.66 162.786,258.66C164.298,258.66 165.618,258.179 166.578,256.98L166.626,256.98L166.626,258.372Z" style="fill:black;fill-rule:nonzero;"/>
    </g>
    <g transform="matrix(1,0,0,1,-0.499734,-222.084)">
        <path d="M175.337,254.795C175.337,252.9 177.474,252.66 178.914,252.66L180.306,252.66C180.306,253.62 180.162,254.507 179.634,255.204C179.13,255.875 178.362,256.307 177.377,256.307C176.226,256.307 175.337,255.852 175.337,254.795ZM173.706,249.419C174.786,248.603 176.154,248.076 177.522,248.076C179.418,248.076 180.306,248.748 180.306,250.74L178.53,250.74C177.186,250.74 175.602,250.86 174.377,251.459C173.154,252.059 172.266,253.139 172.266,254.988C172.266,257.339 174.402,258.66 176.585,258.66C178.05,258.66 179.658,257.891 180.402,256.524L180.45,256.524C180.474,256.908 180.474,257.723 180.594,258.372L183.426,258.372C183.354,257.412 183.306,256.547 183.282,255.612C183.258,254.7 183.234,253.763 183.234,252.515L183.234,250.931C183.234,247.284 181.674,245.723 177.906,245.723C176.538,245.723 174.857,246.083 173.61,246.66L173.706,249.419Z" style="fill:black;fill-rule:nonzero;"/>
    </g>
    <g transform="matrix(1,0,0,1,-0.499734,-222.084)">
        <path d="M205.554,258.131C204.33,258.419 203.01,258.66 201.738,258.66C196.314,258.66 192.545,255.948 192.545,250.284C192.545,244.547 196.05,241.332 201.738,241.332C202.842,241.332 204.306,241.547 205.53,242.028L205.29,244.86C204.018,244.139 202.866,243.971 201.665,243.971C198.21,243.971 196.05,246.612 196.05,250.043C196.05,253.452 198.162,256.02 201.738,256.02C203.058,256.02 204.618,255.732 205.41,255.324L205.554,258.131Z" style="fill:black;fill-rule:nonzero;"/>
    </g>
    <g transform="matrix(1,0,0,1,-0.499734,-222.084)">
        <path d="M210.306,251.891C210.306,250.043 211.314,248.219 213.401,248.219C215.514,248.219 216.522,249.996 216.522,251.891C216.522,253.956 215.874,256.164 213.401,256.164C210.954,256.164 210.306,253.931 210.306,251.891ZM206.945,252.276C206.945,255.828 209.321,258.66 213.401,258.66C217.505,258.66 219.881,255.828 219.881,252.276C219.881,248.196 217.074,245.723 213.401,245.723C209.753,245.723 206.945,248.196 206.945,252.276Z" style="fill:black;fill-rule:nonzero;"/>
    </g>
    <g transform="matrix(1,0,0,1,-0.499734,-222.084)">
        <path d="M233.753,258.372L230.706,258.372L230.706,256.692L230.657,256.692C229.673,257.891 228.282,258.66 226.601,258.66C223.673,258.66 222.401,256.595 222.401,253.812L222.401,246.011L225.618,246.011L225.618,252.612C225.618,254.123 225.641,256.164 227.706,256.164C230.034,256.164 230.538,253.643 230.538,252.059L230.538,246.011L233.753,246.011L233.753,258.372Z" style="fill:black;fill-rule:nonzero;"/>
    </g>
    <g transform="matrix(1,0,0,1,-0.499734,-222.084)">
        <path d="M237.065,246.011L240.114,246.011L240.114,247.692L240.161,247.692C241.169,246.276 242.539,245.723 244.218,245.723C247.146,245.723 248.418,247.788 248.418,250.572L248.418,258.372L245.203,258.372L245.203,251.772C245.203,250.259 245.179,248.219 243.115,248.219C240.787,248.219 240.282,250.74 240.282,252.324L240.282,258.372L237.065,258.372L237.065,246.011Z" style="fill:black;fill-rule:nonzero;"/>
    </g>
    <g transform="matrix(1,0,0,1,-0.499734,-222.084)">
        <path d="M259.746,248.675C259.169,248.412 258.546,248.219 257.562,248.219C255.57,248.219 254.298,249.803 254.298,252.131C254.298,254.412 255.378,256.164 257.634,256.164C258.546,256.164 259.554,255.828 260.107,255.587L260.25,258.251C259.314,258.54 258.355,258.66 257.035,258.66C252.978,258.66 250.939,255.9 250.939,252.131C250.939,248.555 253.05,245.723 256.914,245.723C258.21,245.723 259.146,245.868 260.035,246.131L259.746,248.675Z" style="fill:black;fill-rule:nonzero;"/>
    </g>
    <g transform="matrix(1,0,0,1,-0.499734,-222.084)">
        <path d="M262.459,246.011L265.673,246.011L265.673,258.372L262.459,258.372L262.459,246.011ZM262.459,240.683L265.673,240.683L265.673,243.755L262.459,243.755L262.459,240.683Z" style="fill:black;fill-rule:nonzero;"/>
    </g>
    <g transform="matrix(1,0,0,1,-0.499734,-222.084)">
        <rect x="269.13" y="240.372" width="3.215" height="18" style="fill:black;fill-rule:nonzero;"/>
    </g>
    <g transform="matrix(1,0,0,1,-0.499734,-222.084)">
        <path d="M103.554,274.364L101.178,274.364L101.178,272.011L103.554,272.011L103.554,270.284C103.554,267.811 104.946,266.083 107.49,266.083C108.306,266.083 109.218,266.204 109.842,266.347L109.578,269.011C109.29,268.843 108.882,268.58 108.186,268.58C107.106,268.58 106.77,269.515 106.77,270.475L106.77,272.011L109.578,272.011L109.578,274.364L106.77,274.364L106.77,284.372L103.554,284.372L103.554,274.364Z" style="fill:black;fill-rule:nonzero;"/>
    </g>
    <g transform="matrix(1,0,0,1,-0.499734,-222.084)">
        <path d="M114.282,277.891C114.282,276.043 115.29,274.219 117.378,274.219C119.49,274.219 120.498,275.996 120.498,277.891C120.498,279.956 119.85,282.164 117.378,282.164C114.93,282.164 114.282,279.931 114.282,277.891ZM110.922,278.276C110.922,281.828 113.298,284.66 117.378,284.66C121.482,284.66 123.858,281.828 123.858,278.276C123.858,274.196 121.05,271.723 117.378,271.723C113.73,271.723 110.922,274.196 110.922,278.276Z" style="fill:black;fill-rule:nonzero;"/>
    </g>
    <g transform="matrix(1,0,0,1,-0.499734,-222.084)">
        <path d="M126.45,272.011L129.306,272.011L129.306,274.82L129.354,274.82C129.498,273.667 130.818,271.723 132.738,271.723C133.05,271.723 133.386,271.723 133.722,271.82L133.722,275.059C133.434,274.891 132.858,274.795 132.282,274.795C129.666,274.795 129.666,278.059 129.666,279.835L129.666,284.372L126.45,284.372L126.45,272.011Z" style="fill:black;fill-rule:nonzero;"/>
    </g>
    <g transform="matrix(1,0,0,1,-0.499734,-222.084)">
        <path d="M143.441,274.364L141.065,274.364L141.065,272.011L143.441,272.011L143.441,269.54L146.658,268.507L146.658,272.011L149.514,272.011L149.514,274.364L146.658,274.364L146.658,280.123C146.658,281.179 146.946,282.164 148.169,282.164C148.746,282.164 149.298,282.043 149.634,281.828L149.73,284.372C149.058,284.564 148.314,284.66 147.354,284.66C144.834,284.66 143.441,283.099 143.441,280.652L143.441,274.364Z" style="fill:black;fill-rule:nonzero;"/>
    </g>
    <g transform="matrix(1,0,0,1,-0.499734,-222.084)">
        <path d="M151.721,266.372L154.938,266.372L154.938,273.692L154.985,273.692C155.801,272.492 157.193,271.723 158.874,271.723C161.801,271.723 163.074,273.788 163.074,276.572L163.074,284.372L159.857,284.372L159.857,277.772C159.857,276.259 159.834,274.219 157.77,274.219C155.441,274.219 154.938,276.74 154.938,278.324L154.938,284.372L151.721,284.372L151.721,266.372Z" style="fill:black;fill-rule:nonzero;"/>
    </g>
    <g transform="matrix(1,0,0,1,-0.499734,-222.084)">
        <path d="M168.665,276.98C168.809,275.324 169.721,274.076 171.522,274.076C173.321,274.076 174.042,275.419 174.137,276.98L168.665,276.98ZM176.297,281.059C175.097,281.732 173.753,282.307 172.193,282.307C170.201,282.307 168.809,281.179 168.665,279.188L177.21,279.188C177.21,274.868 175.913,271.723 171.329,271.723C167.489,271.723 165.593,274.675 165.593,278.251C165.593,282.307 167.969,284.66 172.049,284.66C173.777,284.66 175.121,284.324 176.297,283.675L176.297,281.059Z" style="fill:black;fill-rule:nonzero;"/>
    </g>
    <g transform="matrix(1,0,0,1,-0.499734,-222.084)">
        <path d="M195.761,277.891L190.865,277.891L193.289,270.979L193.337,270.979L195.761,277.891ZM184.961,284.372L188.441,284.372L189.905,280.532L196.697,280.532L198.137,284.372L201.857,284.372L195.281,267.62L191.489,267.62L184.961,284.372Z" style="fill:black;fill-rule:nonzero;"/>
    </g>
    <g transform="matrix(1,0,0,1,-0.499734,-222.084)">
        <path d="M203.801,272.011L206.657,272.011L206.657,274.82L206.705,274.82C206.849,273.667 208.169,271.723 210.089,271.723C210.401,271.723 210.737,271.723 211.073,271.82L211.073,275.059C210.785,274.891 210.209,274.795 209.633,274.795C207.017,274.795 207.017,278.059 207.017,279.835L207.017,284.372L203.801,284.372L203.801,272.011Z" style="fill:black;fill-rule:nonzero;"/>
    </g>
    <g transform="matrix(1,0,0,1,-0.499734,-222.084)">
        <path d="M214.121,274.364L211.745,274.364L211.745,272.011L214.121,272.011L214.121,269.54L217.337,268.507L217.337,272.011L220.193,272.011L220.193,274.364L217.337,274.364L217.337,280.123C217.337,281.179 217.625,282.164 218.849,282.164C219.425,282.164 219.976,282.043 220.313,281.828L220.409,284.372C219.737,284.564 218.993,284.66 218.033,284.66C215.513,284.66 214.121,283.099 214.121,280.652L214.121,274.364Z" style="fill:black;fill-rule:nonzero;"/>
    </g>
    <g transform="matrix(1,0,0,1,-0.499734,-222.084)">
        <path d="M229.745,274.603C228.76,274.267 228.041,274.076 226.865,274.076C226.001,274.076 224.969,274.387 224.969,275.444C224.969,277.412 230.561,276.164 230.561,280.627C230.561,283.507 227.993,284.66 225.377,284.66C224.153,284.66 222.905,284.444 221.728,284.131L221.92,281.492C222.928,281.996 223.985,282.307 225.088,282.307C225.905,282.307 227.201,281.996 227.201,280.795C227.201,278.372 221.609,280.028 221.609,275.564C221.609,272.9 223.936,271.723 226.457,271.723C227.969,271.723 228.953,271.963 229.96,272.179L229.745,274.603Z" style="fill:black;fill-rule:nonzero;"/>
    </g>
    <g transform="matrix(1,0,0,1,-0.499734,-222.084)">
        <path d="M322.371,258.131C321.148,258.419 319.828,258.66 318.556,258.66C313.13,258.66 309.363,255.948 309.363,250.284C309.363,244.547 312.867,241.332 318.556,241.332C319.66,241.332 321.123,241.547 322.347,242.028L322.107,244.86C320.835,244.139 319.683,243.971 318.484,243.971C315.027,243.971 312.867,246.612 312.867,250.043C312.867,253.452 314.98,256.02 318.556,256.02C319.875,256.02 321.435,255.732 322.228,255.324L322.371,258.131Z" style="fill:black;fill-rule:nonzero;"/>
    </g>
    <g transform="matrix(1,0,0,1,-0.499734,-222.084)">
        <path d="M327.123,251.891C327.123,250.043 328.13,248.219 330.218,248.219C332.332,248.219 333.339,249.996 333.339,251.891C333.339,253.956 332.691,256.164 330.218,256.164C327.771,256.164 327.123,253.931 327.123,251.891ZM323.763,252.276C323.763,255.828 326.138,258.66 330.218,258.66C334.324,258.66 336.699,255.828 336.699,252.276C336.699,248.196 333.89,245.723 330.218,245.723C326.572,245.723 323.763,248.196 323.763,252.276Z" style="fill:black;fill-rule:nonzero;"/>
    </g>
    <g transform="matrix(1,0,0,1,-0.499734,-222.084)">
        <path d="M339.218,246.011L342.267,246.011L342.267,247.692L342.314,247.692C343.324,246.276 344.691,245.723 346.371,245.723C349.298,245.723 350.572,247.788 350.572,250.572L350.572,258.372L347.355,258.372L347.355,251.772C347.355,250.259 347.332,248.219 345.267,248.219C342.939,248.219 342.435,250.74 342.435,252.324L342.435,258.372L339.218,258.372L339.218,246.011Z" style="fill:black;fill-rule:nonzero;"/>
    </g>
    <g transform="matrix(1,0,0,1,-0.499734,-222.084)">
        <path d="M361.226,248.603C360.242,248.267 359.523,248.076 358.347,248.076C357.482,248.076 356.451,248.387 356.451,249.444C356.451,251.412 362.043,250.164 362.043,254.627C362.043,257.507 359.474,258.66 356.859,258.66C355.634,258.66 354.386,258.444 353.21,258.131L353.402,255.492C354.41,255.996 355.466,256.307 356.57,256.307C357.386,256.307 358.683,255.996 358.683,254.795C358.683,252.372 353.091,254.028 353.091,249.564C353.091,246.9 355.419,245.723 357.939,245.723C359.451,245.723 360.435,245.963 361.443,246.179L361.226,248.603Z" style="fill:black;fill-rule:nonzero;"/>
    </g>
    <g transform="matrix(1,0,0,1,-0.499734,-222.084)">
        <path d="M366.818,250.98C366.962,249.324 367.875,248.076 369.673,248.076C371.474,248.076 372.195,249.419 372.291,250.98L366.818,250.98ZM374.451,255.059C373.25,255.732 371.906,256.307 370.347,256.307C368.355,256.307 366.962,255.179 366.818,253.188L375.363,253.188C375.363,248.868 374.066,245.723 369.482,245.723C365.642,245.723 363.746,248.675 363.746,252.251C363.746,256.307 366.123,258.66 370.203,258.66C371.931,258.66 373.275,258.324 374.451,257.675L374.451,255.059Z" style="fill:black;fill-rule:nonzero;"/>
    </g>
    <g transform="matrix(1,0,0,1,-0.499734,-222.084)">
        <path d="M377.955,246.011L381.169,246.011L381.169,258.372L377.955,258.372L377.955,246.011ZM377.955,240.683L381.169,240.683L381.169,243.755L377.955,243.755L377.955,240.683Z" style="fill:black;fill-rule:nonzero;"/>
    </g>
    <g transform="matrix(1,0,0,1,-0.499734,-222.084)">
        <rect x="384.627" y="240.372" width="3.214" height="18" style="fill:black;fill-rule:nonzero;"/>
    </g>
    <g transform="matrix(1,0,0,1,-0.499734,-222.084)">
        <path d="M400.466,252.156C400.466,250.499 401.043,248.219 403.13,248.219C405.195,248.219 406.011,250.427 406.011,252.156C406.011,253.908 405.314,256.164 403.179,256.164C401.066,256.164 400.466,253.86 400.466,252.156ZM406.13,258.372L409.25,258.372L409.25,240.372L406.035,240.372L406.035,247.452L405.986,247.452C405.027,246.276 403.898,245.723 402.291,245.723C398.498,245.723 397.107,248.748 397.107,252.156C397.107,255.54 398.498,258.66 402.291,258.66C403.802,258.66 405.123,258.179 406.082,256.98L406.13,256.98L406.13,258.372Z" style="fill:black;fill-rule:nonzero;"/>
    </g>
    <g transform="matrix(1,0,0,1,-0.499734,-222.084)">
        <path d="M414.841,250.98C414.986,249.324 415.898,248.076 417.699,248.076C419.498,248.076 420.218,249.419 420.314,250.98L414.841,250.98ZM422.474,255.059C421.275,255.732 419.929,256.307 418.371,256.307C416.378,256.307 414.986,255.179 414.841,253.188L423.386,253.188C423.386,248.868 422.089,245.723 417.505,245.723C413.666,245.723 411.769,248.675 411.769,252.251C411.769,256.307 414.146,258.66 418.226,258.66C419.955,258.66 421.298,258.324 422.474,257.675L422.474,255.059Z" style="fill:black;fill-rule:nonzero;"/>
    </g>
    <g transform="matrix(1,0,0,1,-0.499734,-222.084)">
        <path d="M433.25,248.603C432.265,248.267 431.546,248.076 430.371,248.076C429.505,248.076 428.474,248.387 428.474,249.444C428.474,251.412 434.066,250.164 434.066,254.627C434.066,257.507 431.498,258.66 428.882,258.66C427.658,258.66 426.41,258.444 425.234,258.131L425.425,255.492C426.433,255.996 427.49,256.307 428.593,256.307C429.41,256.307 430.707,255.996 430.707,254.795C430.707,252.372 425.115,254.028 425.115,249.564C425.115,246.9 427.443,245.723 429.962,245.723C431.474,245.723 432.459,245.963 433.466,246.179L433.25,248.603Z" style="fill:black;fill-rule:nonzero;"/>
    </g>
    <g transform="matrix(1,0,0,1,-0.499734,-222.084)">
        <path d="M452.593,251.891L447.697,251.891L450.123,244.979L450.169,244.979L452.593,251.891ZM441.794,258.372L445.273,258.372L446.738,254.532L453.529,254.532L454.97,258.372L458.689,258.372L452.113,241.62L448.322,241.62L441.794,258.372Z" style="fill:black;fill-rule:nonzero;"/>
    </g>
    <g transform="matrix(1,0,0,1,-0.499734,-222.084)">
        <path d="M460.632,246.011L463.49,246.011L463.49,248.82L463.537,248.82C463.681,247.667 465.002,245.723 466.921,245.723C467.234,245.723 467.57,245.723 467.906,245.82L467.906,249.059C467.617,248.891 467.041,248.795 466.464,248.795C463.849,248.795 463.849,252.059 463.849,253.835L463.849,258.372L460.632,258.372L460.632,246.011Z" style="fill:black;fill-rule:nonzero;"/>
    </g>
    <g transform="matrix(1,0,0,1,-0.499734,-222.084)">
        <path d="M470.953,248.364L468.578,248.364L468.578,246.011L470.953,246.011L470.953,243.54L474.169,242.507L474.169,246.011L477.025,246.011L477.025,248.364L474.169,248.364L474.169,254.123C474.169,255.179 474.457,256.164 475.681,256.164C476.257,256.164 476.81,256.043 477.146,255.828L477.242,258.372C476.57,258.564 475.826,258.66 474.865,258.66C472.345,258.66 470.953,257.099 470.953,254.652L470.953,248.364Z" style="fill:black;fill-rule:nonzero;"/>
    </g>
    <g transform="matrix(1,0,0,1,-0.499734,-222.084)">
        <path d="M486.578,248.603C485.593,248.267 484.873,248.076 483.697,248.076C482.834,248.076 481.8,248.387 481.8,249.444C481.8,251.412 487.392,250.164 487.392,254.627C487.392,257.507 484.826,258.66 482.209,258.66C480.986,258.66 479.738,258.444 478.56,258.131L478.753,255.492C479.761,255.996 480.818,256.307 481.921,256.307C482.738,256.307 484.033,255.996 484.033,254.795C484.033,252.372 478.441,254.028 478.441,249.564C478.441,246.9 480.769,245.723 483.289,245.723C484.8,245.723 485.785,245.963 486.793,246.179L486.578,248.603Z" style="fill:black;fill-rule:nonzero;"/>
    </g>
    <g transform="matrix(1,0,0,1,-0.499734,-222.084)">
        <path d="M312.459,278.156C312.459,276.499 313.035,274.219 315.123,274.219C317.187,274.219 318.003,276.427 318.003,278.156C318.003,279.908 317.308,282.164 315.171,282.164C313.06,282.164 312.459,279.86 312.459,278.156ZM318.123,284.372L321.244,284.372L321.244,266.372L318.027,266.372L318.027,273.452L317.98,273.452C317.019,272.276 315.892,271.723 314.283,271.723C310.492,271.723 309.099,274.748 309.099,278.156C309.099,281.54 310.492,284.66 314.283,284.66C315.794,284.66 317.115,284.179 318.076,282.98L318.123,282.98L318.123,284.372Z" style="fill:black;fill-rule:nonzero;"/>
    </g>
    <g transform="matrix(1,0,0,1,-0.499734,-222.084)">
        <path d="M335.908,284.372L332.859,284.372L332.859,282.692L332.81,282.692C331.828,283.891 330.435,284.66 328.755,284.66C325.828,284.66 324.554,282.595 324.554,279.812L324.554,272.011L327.771,272.011L327.771,278.612C327.771,280.123 327.794,282.164 329.859,282.164C332.187,282.164 332.691,279.643 332.691,278.059L332.691,272.011L335.908,272.011L335.908,284.372Z" style="fill:black;fill-rule:nonzero;"/>
    </g>
    <g transform="matrix(1,0,0,1,-0.499734,-222.084)">
        <path d="M358.371,284.131C357.146,284.419 355.828,284.66 354.554,284.66C349.13,284.66 345.363,281.948 345.363,276.284C345.363,270.547 348.867,267.332 354.554,267.332C355.66,267.332 357.123,267.547 358.347,268.028L358.107,270.86C356.835,270.139 355.683,269.971 354.482,269.971C351.027,269.971 348.867,272.612 348.867,276.043C348.867,279.452 350.978,282.02 354.554,282.02C355.875,282.02 357.435,281.732 358.226,281.324L358.371,284.131Z" style="fill:black;fill-rule:nonzero;"/>
    </g>
    <g transform="matrix(1,0,0,1,-0.499734,-222.084)">
        <path d="M362.835,280.795C362.835,278.9 364.97,278.66 366.41,278.66L367.802,278.66C367.802,279.62 367.658,280.507 367.13,281.204C366.627,281.875 365.859,282.307 364.875,282.307C363.722,282.307 362.835,281.852 362.835,280.795ZM361.203,275.419C362.283,274.603 363.65,274.076 365.019,274.076C366.916,274.076 367.802,274.748 367.802,276.74L366.027,276.74C364.683,276.74 363.099,276.86 361.875,277.459C360.65,278.059 359.763,279.139 359.763,280.988C359.763,283.339 361.898,284.66 364.084,284.66C365.546,284.66 367.154,283.891 367.898,282.524L367.947,282.524C367.97,282.908 367.97,283.723 368.091,284.372L370.923,284.372C370.851,283.412 370.802,282.547 370.779,281.612C370.755,280.7 370.73,279.763 370.73,278.515L370.73,276.931C370.73,273.284 369.171,271.723 365.402,271.723C364.035,271.723 362.355,272.083 361.107,272.66L361.203,275.419Z" style="fill:black;fill-rule:nonzero;"/>
    </g>
    <g transform="matrix(1,0,0,1,-0.499734,-222.084)">
        <path d="M373.898,272.011L376.947,272.011L376.947,273.692L376.994,273.692C378.003,272.276 379.371,271.723 381.05,271.723C383.978,271.723 385.252,273.788 385.252,276.572L385.252,284.372L382.035,284.372L382.035,277.772C382.035,276.259 382.011,274.219 379.947,274.219C377.619,274.219 377.115,276.74 377.115,278.324L377.115,284.372L373.898,284.372L373.898,272.011Z" style="fill:black;fill-rule:nonzero;"/>
    </g>
    <g transform="matrix(1,0,0,1,-0.499734,-222.084)">
        <path d="M390.843,280.795C390.843,278.9 392.978,278.66 394.418,278.66L395.81,278.66C395.81,279.62 395.666,280.507 395.138,281.204C394.634,281.875 393.867,282.307 392.882,282.307C391.73,282.307 390.843,281.852 390.843,280.795ZM389.21,275.419C390.291,274.603 391.658,274.076 393.027,274.076C394.923,274.076 395.81,274.748 395.81,276.74L394.035,276.74C392.691,276.74 391.107,276.86 389.882,277.459C388.658,278.059 387.771,279.139 387.771,280.988C387.771,283.339 389.906,284.66 392.091,284.66C393.554,284.66 395.162,283.891 395.906,282.524L395.955,282.524C395.978,282.908 395.978,283.723 396.099,284.372L398.931,284.372C398.859,283.412 398.81,282.547 398.787,281.612C398.763,280.7 398.738,279.763 398.738,278.515L398.738,276.931C398.738,273.284 397.179,271.723 393.41,271.723C392.043,271.723 390.363,272.083 389.115,272.66L389.21,275.419Z" style="fill:black;fill-rule:nonzero;"/>
    </g>
    <g transform="matrix(1,0,0,1,-0.499734,-222.084)">
        <path d="M404.474,278.156C404.474,276.499 405.05,274.219 407.138,274.219C409.203,274.219 410.019,276.427 410.019,278.156C410.019,279.908 409.322,282.164 407.187,282.164C405.074,282.164 404.474,279.86 404.474,278.156ZM410.138,284.372L413.259,284.372L413.259,266.372L410.043,266.372L410.043,273.452L409.994,273.452C409.035,272.276 407.906,271.723 406.298,271.723C402.507,271.723 401.115,274.748 401.115,278.156C401.115,281.54 402.507,284.66 406.298,284.66C407.81,284.66 409.13,284.179 410.091,282.98L410.138,282.98L410.138,284.372Z" style="fill:black;fill-rule:nonzero;"/>
    </g>
    <g transform="matrix(1,0,0,1,-0.499734,-222.084)">
        <path d="M418.851,280.795C418.851,278.9 420.986,278.66 422.425,278.66L423.818,278.66C423.818,279.62 423.673,280.507 423.146,281.204C422.642,281.875 421.875,282.307 420.89,282.307C419.738,282.307 418.851,281.852 418.851,280.795ZM417.218,275.419C418.298,274.603 419.666,274.076 421.035,274.076C422.931,274.076 423.818,274.748 423.818,276.74L422.043,276.74C420.699,276.74 419.115,276.86 417.89,277.459C416.666,278.059 415.779,279.139 415.779,280.988C415.779,283.339 417.914,284.66 420.099,284.66C421.562,284.66 423.169,283.891 423.914,282.524L423.962,282.524C423.986,282.908 423.986,283.723 424.107,284.372L426.939,284.372C426.867,283.412 426.818,282.547 426.794,281.612C426.771,280.7 426.746,279.763 426.746,278.515L426.746,276.931C426.746,273.284 425.187,271.723 421.418,271.723C420.05,271.723 418.371,272.083 417.123,272.66L417.218,275.419Z" style="fill:black;fill-rule:nonzero;"/>
    </g>
</svg>
